<svg role="img" viewBox="0 0 24 24" xmlns="http://www.w3.org/2000/svg" fill="currentColor">
    <path d="M22.28 7.507c-.035-1.516-.546-2.937-1.464-4.135A6.09 6.09 0 0 0 16.657 1.1c-1.516-.035-2.937.476-4.135 1.464a6.09 6.09 0 0 0-2.272 4.135c-.035 1.516.476 2.937 1.464 4.135a6.09 6.09 0 0 0 4.135 2.272c1.516.035 2.937-.476 4.135-1.464a6.09 6.09 0 0 0 2.296-4.135zM12 12c-1.516-.035-2.937.476-4.135 1.464a6.09 6.09 0 0 0-2.272 4.135c-.035 1.516.476 2.937 1.464 4.135a6.09 6.09 0 0 0 4.135 2.272c1.516.035 2.937-.476 4.135-1.464a6.09 6.09 0 0 0 2.272-4.135c.035-1.516-.476-2.937-1.464-4.135A6.09 6.09 0 0 0 12 12z"/>
</svg>
