<svg role="img" viewBox="0 0 24 24" xmlns="http://www.w3.org/2000/svg" fill="currentColor">
    <path d="M0 0v24h24V0H0zm6.54 16.03V8.3h3.58c1.9 0 2.87.97 2.87 2.62 0 1.83-1.01 2.65-2.87 2.65H8.35v2.46H6.54zm5.88-2.67h1.49c1 0 1.34-.4 1.34-1.04 0-.71-.38-1.05-1.34-1.05h-1.49v2.09zM14.28 16.14c-.69 0-1.28-.15-1.74-.41l.36-1.31c.42.22.88.35 1.32.35.63 0 .97-.24.97-.66 0-.39-.33-.58-1.03-.84-.96-.35-1.59-.83-1.59-1.8 0-1 .85-1.71 2.21-1.71.65 0 1.23.15 1.63.36l-.37 1.3c-.35-.16-.8-.28-1.21-.28-.59 0-.84.22-.84.53 0 .39.36.56 1.09.84.97.37 1.54.91 1.54 1.78.01 1.15-.84 1.85-2.34 1.85z"/>
</svg>
